<svg width="168" height="108" viewBox="0 0 168 108" fill="none" xmlns="http://www.w3.org/2000/svg">
<rect width="167" height="108" fill="white"/>
<circle cx="47" cy="61" r="46.5" stroke="#8C99A4"/>
<g style="mix-blend-mode:multiply">
<circle cx="47.5" cy="76.5" r="31" stroke="#8C99A4"/>
</g>
<circle cx="47" cy="92" r="15.5" stroke="#8C99A4"/>
<path d="M140.296 79.912H142.76V72.096C142.76 71.8613 142.768 71.624 142.784 71.384L140.736 73.136C140.683 73.1787 140.629 73.2107 140.576 73.232C140.523 73.248 140.472 73.256 140.424 73.256C140.344 73.256 140.272 73.24 140.208 73.208C140.144 73.1707 140.096 73.128 140.064 73.08L139.616 72.464L143.024 69.512H144.184V79.912H146.44V81H140.296V79.912ZM156.081 75.272C156.081 76.2747 155.972 77.144 155.753 77.88C155.54 78.6107 155.247 79.216 154.873 79.696C154.5 80.176 154.057 80.5333 153.545 80.768C153.039 81.0027 152.495 81.12 151.913 81.12C151.327 81.12 150.78 81.0027 150.273 80.768C149.772 80.5333 149.335 80.176 148.961 79.696C148.588 79.216 148.295 78.6107 148.081 77.88C147.868 77.144 147.761 76.2747 147.761 75.272C147.761 74.2693 147.868 73.4 148.081 72.664C148.295 71.928 148.588 71.32 148.961 70.84C149.335 70.3547 149.772 69.9947 150.273 69.76C150.78 69.5253 151.327 69.408 151.913 69.408C152.495 69.408 153.039 69.5253 153.545 69.76C154.057 69.9947 154.5 70.3547 154.873 70.84C155.247 71.32 155.54 71.928 155.753 72.664C155.972 73.4 156.081 74.2693 156.081 75.272ZM154.601 75.272C154.601 74.3973 154.527 73.664 154.377 73.072C154.233 72.4747 154.036 71.9947 153.785 71.632C153.54 71.2693 153.255 71.0107 152.929 70.856C152.604 70.696 152.265 70.616 151.913 70.616C151.561 70.616 151.223 70.696 150.897 70.856C150.572 71.0107 150.287 71.2693 150.041 71.632C149.796 71.9947 149.599 72.4747 149.449 73.072C149.305 73.664 149.233 74.3973 149.233 75.272C149.233 76.1467 149.305 76.88 149.449 77.472C149.599 78.064 149.796 78.5413 150.041 78.904C150.287 79.2667 150.572 79.528 150.897 79.688C151.223 79.8427 151.561 79.92 151.913 79.92C152.265 79.92 152.604 79.8427 152.929 79.688C153.255 79.528 153.54 79.2667 153.785 78.904C154.036 78.5413 154.233 78.064 154.377 77.472C154.527 76.88 154.601 76.1467 154.601 75.272ZM159.659 74.56H160.243C160.445 74.56 160.605 74.536 160.723 74.488C160.845 74.4347 160.96 74.3467 161.067 74.224L164.883 69.904C165 69.7707 165.112 69.6773 165.219 69.624C165.331 69.5653 165.472 69.536 165.643 69.536H166.963L162.595 74.472C162.483 74.5947 162.376 74.6987 162.275 74.784C162.179 74.8693 162.075 74.9387 161.963 74.992C162.112 75.04 162.243 75.112 162.355 75.208C162.467 75.304 162.584 75.424 162.707 75.568L167.267 81H165.923C165.821 81 165.736 80.992 165.667 80.976C165.597 80.96 165.536 80.9387 165.483 80.912C165.435 80.8853 165.389 80.8507 165.347 80.808C165.304 80.7653 165.261 80.72 165.219 80.672L161.259 76.12C161.2 76.056 161.144 76.0027 161.091 75.96C161.043 75.912 160.984 75.872 160.915 75.84C160.851 75.808 160.773 75.7867 160.683 75.776C160.597 75.76 160.491 75.752 160.363 75.752H159.659V81H158.115V69.536H159.659V74.56Z" fill="#8C99A4"/>
<path d="M145.224 45.864H146.96V46.68C146.96 46.7653 146.933 46.8373 146.88 46.896C146.832 46.9547 146.755 46.984 146.648 46.984H145.224V50H143.968V46.984H138.888C138.781 46.984 138.688 46.9547 138.608 46.896C138.533 46.832 138.485 46.7547 138.464 46.664L138.32 45.936L143.896 38.536H145.224V45.864ZM143.968 41.136C143.968 40.9973 143.971 40.848 143.976 40.688C143.987 40.528 144.005 40.3627 144.032 40.192L139.864 45.864H143.968V41.136ZM155.105 39.16C155.105 39.3627 155.041 39.5307 154.913 39.664C154.785 39.792 154.569 39.856 154.265 39.856H150.665L150.137 42.864C150.735 42.736 151.287 42.672 151.793 42.672C152.391 42.672 152.916 42.76 153.369 42.936C153.828 43.112 154.212 43.3547 154.521 43.664C154.831 43.9733 155.063 44.3387 155.217 44.76C155.377 45.1813 155.457 45.64 155.457 46.136C155.457 46.744 155.351 47.2933 155.137 47.784C154.924 48.2747 154.631 48.696 154.257 49.048C153.889 49.3947 153.455 49.6613 152.953 49.848C152.452 50.0347 151.911 50.128 151.329 50.128C150.993 50.128 150.671 50.0933 150.361 50.024C150.052 49.96 149.764 49.872 149.497 49.76C149.231 49.648 148.983 49.52 148.753 49.376C148.524 49.232 148.321 49.08 148.145 48.92L148.577 48.312C148.673 48.1733 148.801 48.104 148.961 48.104C149.063 48.104 149.18 48.1467 149.313 48.232C149.452 48.312 149.617 48.4027 149.809 48.504C150.001 48.6053 150.225 48.6987 150.481 48.784C150.743 48.864 151.052 48.904 151.409 48.904C151.809 48.904 152.169 48.84 152.489 48.712C152.809 48.584 153.081 48.4027 153.305 48.168C153.535 47.928 153.711 47.6427 153.833 47.312C153.956 46.9813 154.017 46.6107 154.017 46.2C154.017 45.8427 153.964 45.52 153.857 45.232C153.756 44.944 153.599 44.6987 153.385 44.496C153.177 44.2933 152.916 44.136 152.601 44.024C152.287 43.912 151.919 43.856 151.497 43.856C151.209 43.856 150.911 43.88 150.601 43.928C150.292 43.976 149.972 44.0533 149.641 44.16L148.745 43.896L149.673 38.536H155.105V39.16ZM159.659 43.56H160.243C160.445 43.56 160.605 43.536 160.723 43.488C160.845 43.4347 160.96 43.3467 161.067 43.224L164.883 38.904C165 38.7707 165.112 38.6773 165.219 38.624C165.331 38.5653 165.472 38.536 165.643 38.536H166.963L162.595 43.472C162.483 43.5947 162.376 43.6987 162.275 43.784C162.179 43.8693 162.075 43.9387 161.963 43.992C162.112 44.04 162.243 44.112 162.355 44.208C162.467 44.304 162.584 44.424 162.707 44.568L167.267 50H165.923C165.821 50 165.736 49.992 165.667 49.976C165.597 49.96 165.536 49.9387 165.483 49.912C165.435 49.8853 165.389 49.8507 165.347 49.808C165.304 49.7653 165.261 49.72 165.219 49.672L161.259 45.12C161.2 45.056 161.144 45.0027 161.091 44.96C161.043 44.912 160.984 44.872 160.915 44.84C160.851 44.808 160.773 44.7867 160.683 44.776C160.597 44.76 160.491 44.752 160.363 44.752H159.659V50H158.115V38.536H159.659V43.56Z" fill="#8C99A4"/>
<path d="M146.672 7.536V8.176C146.672 8.35733 146.651 8.50667 146.608 8.624C146.571 8.74133 146.531 8.84 146.488 8.92L141.744 18.496C141.675 18.6347 141.579 18.7547 141.456 18.856C141.333 18.952 141.168 19 140.96 19H139.944L144.76 9.544C144.829 9.41067 144.899 9.288 144.968 9.176C145.043 9.064 145.125 8.95733 145.216 8.856H139.232C139.141 8.856 139.059 8.82133 138.984 8.752C138.915 8.67733 138.88 8.59467 138.88 8.504V7.536H146.672ZM155.105 8.16C155.105 8.36267 155.041 8.53067 154.913 8.664C154.785 8.792 154.569 8.856 154.265 8.856H150.665L150.137 11.864C150.735 11.736 151.287 11.672 151.793 11.672C152.391 11.672 152.916 11.76 153.369 11.936C153.828 12.112 154.212 12.3547 154.521 12.664C154.831 12.9733 155.063 13.3387 155.217 13.76C155.377 14.1813 155.457 14.64 155.457 15.136C155.457 15.744 155.351 16.2933 155.137 16.784C154.924 17.2747 154.631 17.696 154.257 18.048C153.889 18.3947 153.455 18.6613 152.953 18.848C152.452 19.0347 151.911 19.128 151.329 19.128C150.993 19.128 150.671 19.0933 150.361 19.024C150.052 18.96 149.764 18.872 149.497 18.76C149.231 18.648 148.983 18.52 148.753 18.376C148.524 18.232 148.321 18.08 148.145 17.92L148.577 17.312C148.673 17.1733 148.801 17.104 148.961 17.104C149.063 17.104 149.18 17.1467 149.313 17.232C149.452 17.312 149.617 17.4027 149.809 17.504C150.001 17.6053 150.225 17.6987 150.481 17.784C150.743 17.864 151.052 17.904 151.409 17.904C151.809 17.904 152.169 17.84 152.489 17.712C152.809 17.584 153.081 17.4027 153.305 17.168C153.535 16.928 153.711 16.6427 153.833 16.312C153.956 15.9813 154.017 15.6107 154.017 15.2C154.017 14.8427 153.964 14.52 153.857 14.232C153.756 13.944 153.599 13.6987 153.385 13.496C153.177 13.2933 152.916 13.136 152.601 13.024C152.287 12.912 151.919 12.856 151.497 12.856C151.209 12.856 150.911 12.88 150.601 12.928C150.292 12.976 149.972 13.0533 149.641 13.16L148.745 12.896L149.673 7.536H155.105V8.16ZM159.659 12.56H160.243C160.445 12.56 160.605 12.536 160.723 12.488C160.845 12.4347 160.96 12.3467 161.067 12.224L164.883 7.904C165 7.77067 165.112 7.67733 165.219 7.624C165.331 7.56533 165.472 7.536 165.643 7.536H166.963L162.595 12.472C162.483 12.5947 162.376 12.6987 162.275 12.784C162.179 12.8693 162.075 12.9387 161.963 12.992C162.112 13.04 162.243 13.112 162.355 13.208C162.467 13.304 162.584 13.424 162.707 13.568L167.267 19H165.923C165.821 19 165.736 18.992 165.667 18.976C165.597 18.96 165.536 18.9387 165.483 18.912C165.435 18.8853 165.389 18.8507 165.347 18.808C165.304 18.7653 165.261 18.72 165.219 18.672L161.259 14.12C161.2 14.056 161.144 14.0027 161.091 13.96C161.043 13.912 160.984 13.872 160.915 13.84C160.851 13.808 160.773 13.7867 160.683 13.776C160.597 13.76 160.491 13.752 160.363 13.752H159.659V19H158.115V7.536H159.659V12.56Z" fill="#8C99A4"/>
<line x1="47" y1="76.5" x2="128" y2="76.5" stroke="#8C99A4" stroke-dasharray="1 1"/>
<line x1="47" y1="45.5" x2="128" y2="45.5" stroke="#8C99A4" stroke-dasharray="1 1"/>
<line x1="47" y1="14.5" x2="128" y2="14.5" stroke="#8C99A4" stroke-dasharray="1 1"/>
</svg>
