<svg width="168" height="108" viewBox="0 0 168 108" fill="none" xmlns="http://www.w3.org/2000/svg">
<rect width="167" height="108" fill="white"/>
<circle cx="47" cy="61" r="46.5" stroke="#8C99A4"/>
<g style="mix-blend-mode:multiply">
<circle cx="47.5" cy="76.5" r="31" stroke="#8C99A4"/>
</g>
<circle cx="47" cy="92" r="15.5" stroke="#8C99A4"/>
<path d="M140.296 79.912H142.76V72.096C142.76 71.8613 142.768 71.624 142.784 71.384L140.736 73.136C140.683 73.1787 140.629 73.2107 140.576 73.232C140.523 73.248 140.472 73.256 140.424 73.256C140.344 73.256 140.272 73.24 140.208 73.208C140.144 73.1707 140.096 73.128 140.064 73.08L139.616 72.464L143.024 69.512H144.184V79.912H146.44V81H140.296V79.912ZM155.105 70.16C155.105 70.3627 155.041 70.5307 154.913 70.664C154.785 70.792 154.569 70.856 154.265 70.856H150.665L150.137 73.864C150.735 73.736 151.287 73.672 151.793 73.672C152.391 73.672 152.916 73.76 153.369 73.936C153.828 74.112 154.212 74.3547 154.521 74.664C154.831 74.9733 155.063 75.3387 155.217 75.76C155.377 76.1813 155.457 76.64 155.457 77.136C155.457 77.744 155.351 78.2933 155.137 78.784C154.924 79.2747 154.631 79.696 154.257 80.048C153.889 80.3947 153.455 80.6613 152.953 80.848C152.452 81.0347 151.911 81.128 151.329 81.128C150.993 81.128 150.671 81.0933 150.361 81.024C150.052 80.96 149.764 80.872 149.497 80.76C149.231 80.648 148.983 80.52 148.753 80.376C148.524 80.232 148.321 80.08 148.145 79.92L148.577 79.312C148.673 79.1733 148.801 79.104 148.961 79.104C149.063 79.104 149.18 79.1467 149.313 79.232C149.452 79.312 149.617 79.4027 149.809 79.504C150.001 79.6053 150.225 79.6987 150.481 79.784C150.743 79.864 151.052 79.904 151.409 79.904C151.809 79.904 152.169 79.84 152.489 79.712C152.809 79.584 153.081 79.4027 153.305 79.168C153.535 78.928 153.711 78.6427 153.833 78.312C153.956 77.9813 154.017 77.6107 154.017 77.2C154.017 76.8427 153.964 76.52 153.857 76.232C153.756 75.944 153.599 75.6987 153.385 75.496C153.177 75.2933 152.916 75.136 152.601 75.024C152.287 74.912 151.919 74.856 151.497 74.856C151.209 74.856 150.911 74.88 150.601 74.928C150.292 74.976 149.972 75.0533 149.641 75.16L148.745 74.896L149.673 69.536H155.105V70.16ZM159.659 74.56H160.243C160.445 74.56 160.605 74.536 160.723 74.488C160.845 74.4347 160.96 74.3467 161.067 74.224L164.883 69.904C165 69.7707 165.112 69.6773 165.219 69.624C165.331 69.5653 165.472 69.536 165.643 69.536H166.963L162.595 74.472C162.483 74.5947 162.376 74.6987 162.275 74.784C162.179 74.8693 162.075 74.9387 161.963 74.992C162.112 75.04 162.243 75.112 162.355 75.208C162.467 75.304 162.584 75.424 162.707 75.568L167.267 81H165.923C165.821 81 165.736 80.992 165.667 80.976C165.597 80.96 165.536 80.9387 165.483 80.912C165.435 80.8853 165.389 80.8507 165.347 80.808C165.304 80.7653 165.261 80.72 165.219 80.672L161.259 76.12C161.2 76.056 161.144 76.0027 161.091 75.96C161.043 75.912 160.984 75.872 160.915 75.84C160.851 75.808 160.773 75.7867 160.683 75.776C160.597 75.76 160.491 75.752 160.363 75.752H159.659V81H158.115V69.536H159.659V74.56Z" fill="#8C99A4"/>
<path d="M142.808 38.408C143.293 38.408 143.747 38.48 144.168 38.624C144.589 38.768 144.952 38.9787 145.256 39.256C145.565 39.528 145.808 39.8613 145.984 40.256C146.16 40.6507 146.248 41.0987 146.248 41.6C146.248 42.0267 146.184 42.4213 146.056 42.784C145.928 43.1467 145.755 43.496 145.536 43.832C145.317 44.1627 145.064 44.4853 144.776 44.8C144.493 45.1093 144.192 45.4267 143.872 45.752L140.856 48.84C141.069 48.7813 141.285 48.736 141.504 48.704C141.723 48.6667 141.933 48.648 142.136 48.648H145.976C146.131 48.648 146.253 48.6933 146.344 48.784C146.435 48.8747 146.48 48.992 146.48 49.136V50H138.832V49.512C138.832 49.4107 138.851 49.3067 138.888 49.2C138.931 49.0933 138.997 48.9947 139.088 48.904L142.76 45.216C143.064 44.9067 143.341 44.6107 143.592 44.328C143.843 44.04 144.056 43.752 144.232 43.464C144.413 43.176 144.552 42.8853 144.648 42.592C144.744 42.2933 144.792 41.976 144.792 41.64C144.792 41.304 144.739 41.0107 144.632 40.76C144.525 40.504 144.379 40.2933 144.192 40.128C144.005 39.9627 143.787 39.84 143.536 39.76C143.285 39.6747 143.016 39.632 142.728 39.632C142.44 39.632 142.173 39.6747 141.928 39.76C141.683 39.8453 141.464 39.9653 141.272 40.12C141.085 40.2693 140.925 40.448 140.792 40.656C140.664 40.864 140.573 41.0933 140.52 41.344C140.477 41.4987 140.413 41.6107 140.328 41.68C140.243 41.7493 140.131 41.784 139.992 41.784C139.965 41.784 139.936 41.784 139.904 41.784C139.877 41.7787 139.845 41.7733 139.808 41.768L139.064 41.64C139.139 41.1173 139.283 40.656 139.496 40.256C139.709 39.8507 139.979 39.512 140.304 39.24C140.635 38.968 141.011 38.7627 141.432 38.624C141.859 38.48 142.317 38.408 142.808 38.408ZM156.081 44.272C156.081 45.2747 155.972 46.144 155.753 46.88C155.54 47.6107 155.247 48.216 154.873 48.696C154.5 49.176 154.057 49.5333 153.545 49.768C153.039 50.0027 152.495 50.12 151.913 50.12C151.327 50.12 150.78 50.0027 150.273 49.768C149.772 49.5333 149.335 49.176 148.961 48.696C148.588 48.216 148.295 47.6107 148.081 46.88C147.868 46.144 147.761 45.2747 147.761 44.272C147.761 43.2693 147.868 42.4 148.081 41.664C148.295 40.928 148.588 40.32 148.961 39.84C149.335 39.3547 149.772 38.9947 150.273 38.76C150.78 38.5253 151.327 38.408 151.913 38.408C152.495 38.408 153.039 38.5253 153.545 38.76C154.057 38.9947 154.5 39.3547 154.873 39.84C155.247 40.32 155.54 40.928 155.753 41.664C155.972 42.4 156.081 43.2693 156.081 44.272ZM154.601 44.272C154.601 43.3973 154.527 42.664 154.377 42.072C154.233 41.4747 154.036 40.9947 153.785 40.632C153.54 40.2693 153.255 40.0107 152.929 39.856C152.604 39.696 152.265 39.616 151.913 39.616C151.561 39.616 151.223 39.696 150.897 39.856C150.572 40.0107 150.287 40.2693 150.041 40.632C149.796 40.9947 149.599 41.4747 149.449 42.072C149.305 42.664 149.233 43.3973 149.233 44.272C149.233 45.1467 149.305 45.88 149.449 46.472C149.599 47.064 149.796 47.5413 150.041 47.904C150.287 48.2667 150.572 48.528 150.897 48.688C151.223 48.8427 151.561 48.92 151.913 48.92C152.265 48.92 152.604 48.8427 152.929 48.688C153.255 48.528 153.54 48.2667 153.785 47.904C154.036 47.5413 154.233 47.064 154.377 46.472C154.527 45.88 154.601 45.1467 154.601 44.272ZM159.659 43.56H160.243C160.445 43.56 160.605 43.536 160.723 43.488C160.845 43.4347 160.96 43.3467 161.067 43.224L164.883 38.904C165 38.7707 165.112 38.6773 165.219 38.624C165.331 38.5653 165.472 38.536 165.643 38.536H166.963L162.595 43.472C162.483 43.5947 162.376 43.6987 162.275 43.784C162.179 43.8693 162.075 43.9387 161.963 43.992C162.112 44.04 162.243 44.112 162.355 44.208C162.467 44.304 162.584 44.424 162.707 44.568L167.267 50H165.923C165.821 50 165.736 49.992 165.667 49.976C165.597 49.96 165.536 49.9387 165.483 49.912C165.435 49.8853 165.389 49.8507 165.347 49.808C165.304 49.7653 165.261 49.72 165.219 49.672L161.259 45.12C161.2 45.056 161.144 45.0027 161.091 44.96C161.043 44.912 160.984 44.872 160.915 44.84C160.851 44.808 160.773 44.7867 160.683 44.776C160.597 44.76 160.491 44.752 160.363 44.752H159.659V50H158.115V38.536H159.659V43.56Z" fill="#8C99A4"/>
<path d="M142.808 7.408C143.293 7.408 143.747 7.48 144.168 7.624C144.589 7.768 144.952 7.97867 145.256 8.256C145.565 8.528 145.808 8.86133 145.984 9.256C146.16 9.65067 146.248 10.0987 146.248 10.6C146.248 11.0267 146.184 11.4213 146.056 11.784C145.928 12.1467 145.755 12.496 145.536 12.832C145.317 13.1627 145.064 13.4853 144.776 13.8C144.493 14.1093 144.192 14.4267 143.872 14.752L140.856 17.84C141.069 17.7813 141.285 17.736 141.504 17.704C141.723 17.6667 141.933 17.648 142.136 17.648H145.976C146.131 17.648 146.253 17.6933 146.344 17.784C146.435 17.8747 146.48 17.992 146.48 18.136V19H138.832V18.512C138.832 18.4107 138.851 18.3067 138.888 18.2C138.931 18.0933 138.997 17.9947 139.088 17.904L142.76 14.216C143.064 13.9067 143.341 13.6107 143.592 13.328C143.843 13.04 144.056 12.752 144.232 12.464C144.413 12.176 144.552 11.8853 144.648 11.592C144.744 11.2933 144.792 10.976 144.792 10.64C144.792 10.304 144.739 10.0107 144.632 9.76C144.525 9.504 144.379 9.29333 144.192 9.128C144.005 8.96267 143.787 8.84 143.536 8.76C143.285 8.67467 143.016 8.632 142.728 8.632C142.44 8.632 142.173 8.67467 141.928 8.76C141.683 8.84533 141.464 8.96533 141.272 9.12C141.085 9.26933 140.925 9.448 140.792 9.656C140.664 9.864 140.573 10.0933 140.52 10.344C140.477 10.4987 140.413 10.6107 140.328 10.68C140.243 10.7493 140.131 10.784 139.992 10.784C139.965 10.784 139.936 10.784 139.904 10.784C139.877 10.7787 139.845 10.7733 139.808 10.768L139.064 10.64C139.139 10.1173 139.283 9.656 139.496 9.256C139.709 8.85067 139.979 8.512 140.304 8.24C140.635 7.968 141.011 7.76267 141.432 7.624C141.859 7.48 142.317 7.408 142.808 7.408ZM155.105 8.16C155.105 8.36267 155.041 8.53067 154.913 8.664C154.785 8.792 154.569 8.856 154.265 8.856H150.665L150.137 11.864C150.735 11.736 151.287 11.672 151.793 11.672C152.391 11.672 152.916 11.76 153.369 11.936C153.828 12.112 154.212 12.3547 154.521 12.664C154.831 12.9733 155.063 13.3387 155.217 13.76C155.377 14.1813 155.457 14.64 155.457 15.136C155.457 15.744 155.351 16.2933 155.137 16.784C154.924 17.2747 154.631 17.696 154.257 18.048C153.889 18.3947 153.455 18.6613 152.953 18.848C152.452 19.0347 151.911 19.128 151.329 19.128C150.993 19.128 150.671 19.0933 150.361 19.024C150.052 18.96 149.764 18.872 149.497 18.76C149.231 18.648 148.983 18.52 148.753 18.376C148.524 18.232 148.321 18.08 148.145 17.92L148.577 17.312C148.673 17.1733 148.801 17.104 148.961 17.104C149.063 17.104 149.18 17.1467 149.313 17.232C149.452 17.312 149.617 17.4027 149.809 17.504C150.001 17.6053 150.225 17.6987 150.481 17.784C150.743 17.864 151.052 17.904 151.409 17.904C151.809 17.904 152.169 17.84 152.489 17.712C152.809 17.584 153.081 17.4027 153.305 17.168C153.535 16.928 153.711 16.6427 153.833 16.312C153.956 15.9813 154.017 15.6107 154.017 15.2C154.017 14.8427 153.964 14.52 153.857 14.232C153.756 13.944 153.599 13.6987 153.385 13.496C153.177 13.2933 152.916 13.136 152.601 13.024C152.287 12.912 151.919 12.856 151.497 12.856C151.209 12.856 150.911 12.88 150.601 12.928C150.292 12.976 149.972 13.0533 149.641 13.16L148.745 12.896L149.673 7.536H155.105V8.16ZM159.659 12.56H160.243C160.445 12.56 160.605 12.536 160.723 12.488C160.845 12.4347 160.96 12.3467 161.067 12.224L164.883 7.904C165 7.77067 165.112 7.67733 165.219 7.624C165.331 7.56533 165.472 7.536 165.643 7.536H166.963L162.595 12.472C162.483 12.5947 162.376 12.6987 162.275 12.784C162.179 12.8693 162.075 12.9387 161.963 12.992C162.112 13.04 162.243 13.112 162.355 13.208C162.467 13.304 162.584 13.424 162.707 13.568L167.267 19H165.923C165.821 19 165.736 18.992 165.667 18.976C165.597 18.96 165.536 18.9387 165.483 18.912C165.435 18.8853 165.389 18.8507 165.347 18.808C165.304 18.7653 165.261 18.72 165.219 18.672L161.259 14.12C161.2 14.056 161.144 14.0027 161.091 13.96C161.043 13.912 160.984 13.872 160.915 13.84C160.851 13.808 160.773 13.7867 160.683 13.776C160.597 13.76 160.491 13.752 160.363 13.752H159.659V19H158.115V7.536H159.659V12.56Z" fill="#8C99A4"/>
<line x1="47" y1="76.5" x2="128" y2="76.5" stroke="#8C99A4" stroke-dasharray="1 1"/>
<line x1="47" y1="45.5" x2="128" y2="45.5" stroke="#8C99A4" stroke-dasharray="1 1"/>
<line x1="47" y1="14.5" x2="128" y2="14.5" stroke="#8C99A4" stroke-dasharray="1 1"/>
</svg>
