<svg id="图层_1" data-name="图层 1" xmlns="http://www.w3.org/2000/svg" width="512" height="448" viewBox="0 0 512 448">
  <defs>
    <style>
      .cls-1 {
        fill: #fff;
      }
    </style>
  </defs>
  <title>close</title>
  <path class="cls-1" d="M464,32H48A48,48,0,0,0,0,80V432a48,48,0,0,0,48,48H464a48,48,0,0,0,48-48V80A48,48,0,0,0,464,32Zm0,394a6,6,0,0,1-6,6H54a6,6,0,0,1-6-6V86a6,6,0,0,1,6-6H458a6,6,0,0,1,6,6ZM356.5,194.6,295.1,256l61.4,61.4a12,12,0,0,1,0,16.8l-22.3,22.3a12,12,0,0,1-16.8,0L256,295.1l-61.4,61.4a12,12,0,0,1-16.8,0l-22.3-22.3a12,12,0,0,1,0-16.8L216.9,256l-61.4-61.4a12,12,0,0,1,0-16.8l22.3-22.3a12,12,0,0,1,16.8,0L256,216.9l61.4-61.4a12,12,0,0,1,16.8,0l22.3,22.3a11.8,11.8,0,0,1,0,16.8Z" transform="translate(0 -32)"/>
</svg>
