<svg xmlns="http://www.w3.org/2000/svg" viewBox="0 0 143.39 9.44"><defs><style>.cls-1{fill:#ababab;}</style></defs><g id="Layer_2" data-name="Layer 2"><g id="Layer_1-2" data-name="Layer 1"><path class="cls-1" d="M98.48,2.6c0,1.48.92,2.13,2.13,2.57l1.31.47c.81.3,1.27.58,1.27,1.28s-.72,1.18-1.76,1.18a4.56,4.56,0,0,1-2.87-1v1.6a5.16,5.16,0,0,0,2.87.79c1.85,0,3.25-.9,3.25-2.55a2.59,2.59,0,0,0-2.06-2.6l-1.46-.53c-.76-.27-1.19-.53-1.19-1.19s.69-1.08,1.6-1.08a4.19,4.19,0,0,1,2.64,1V.89a4.94,4.94,0,0,0-2.67-.73c-1.67,0-3.06.86-3.06,2.44"/><rect class="cls-1" x="108.66" y="0.31" width="1.54" height="9"/><rect class="cls-1" x="80.97" y="0.31" width="1.54" height="9"/><path class="cls-1" d="M116.22,1.66h1.88C120,1.66,121,2.87,121,4.8s-1,3.14-2.91,3.14h-1.88ZM114.69.31v9h3.46a4.16,4.16,0,0,0,4.4-4.5,4.16,4.16,0,0,0-4.4-4.49Z"/><polygon class="cls-1" points="125.8 0.31 125.8 9.3 131.28 9.3 131.28 7.94 127.3 7.94 127.3 5.15 130.87 5.15 130.87 3.82 127.3 3.82 127.3 1.66 131.28 1.66 131.28 0.31 125.8 0.31"/><path class="cls-1" d="M137.41,1.63h1.72c1,0,1.59.54,1.59,1.38s-.58,1.37-1.59,1.37h-1.72ZM135.87.31v9h1.54V5.65h1.09l3.15,3.65h1.74l-3.26-3.7A2.3,2.3,0,0,0,142.24,3c0-1.77-1.21-2.7-3.08-2.7Z"/><path class="cls-1" d="M20.77,2.49c0,1.51.93,2.16,2.14,2.61l1.33.47c.81.32,1.27.6,1.27,1.31s-.72,1.19-1.76,1.19A4.59,4.59,0,0,1,20.85,7V8.64a5.18,5.18,0,0,0,2.9.8C25.6,9.44,27,8.52,27,6.85A2.65,2.65,0,0,0,24.93,4.2l-1.47-.53c-.75-.27-1.19-.54-1.19-1.21s.69-1.1,1.61-1.1a4.23,4.23,0,0,1,2.66,1V.75A4.88,4.88,0,0,0,23.85,0c-1.68,0-3.08.87-3.08,2.48"/><path class="cls-1" d="M67.22,2.49c0,1.5.92,2.15,2.14,2.6l1.32.48c.82.31,1.28.59,1.28,1.31s-.73,1.19-1.77,1.19A4.6,4.6,0,0,1,67.29,7V8.63a5.18,5.18,0,0,0,2.9.81c1.85,0,3.27-.92,3.27-2.59A2.64,2.64,0,0,0,71.38,4.2l-1.47-.54c-.76-.27-1.19-.53-1.19-1.2s.68-1.11,1.6-1.11a4.24,4.24,0,0,1,2.66,1V.74A5,5,0,0,0,70.29,0c-1.68,0-3.07.88-3.07,2.49"/><path class="cls-1" d="M57.88,2.49c0,1.5.92,2.15,2.14,2.6l1.32.48c.82.31,1.28.59,1.28,1.31s-.73,1.19-1.77,1.19A4.57,4.57,0,0,1,58,7V8.63a5.17,5.17,0,0,0,2.89.81c1.86,0,3.27-.92,3.27-2.59A2.63,2.63,0,0,0,62,4.2l-1.47-.54c-.76-.27-1.19-.53-1.19-1.2S60.07,1.35,61,1.35a4.24,4.24,0,0,1,2.66,1V.74A5,5,0,0,0,61,0c-1.68,0-3.08.88-3.08,2.49"/><polygon class="cls-1" points="48.83 0.15 48.83 9.29 54.36 9.29 54.36 7.91 50.35 7.91 50.35 5.08 53.95 5.08 53.95 3.72 50.35 3.72 50.35 1.52 54.36 1.52 54.36 0.15 48.83 0.15"/><path class="cls-1" d="M1.5,5.28h2c1,0,1.61.5,1.61,1.34S4.5,8,3.46,8h-2Zm0-3.78H3.18c1.06,0,1.62.37,1.62,1.23S4.24,4,3.18,4H1.5ZM0,.16V9.3H3.49c1.9,0,3.09-.91,3.09-2.62A2.2,2.2,0,0,0,5.1,4.58,2,2,0,0,0,6.29,2.64C6.29,1,5.1.16,3.19.16Z"/><rect class="cls-1" x="30.99" y="0.15" width="1.55" height="9.14"/><path class="cls-1" d="M15.66.15V5.48c0,1.76-.74,2.58-2.11,2.58s-2.11-.82-2.11-2.58V.15H9.9v5.5c0,2.51,1.48,3.79,3.65,3.79s3.66-1.28,3.66-3.78V.15Z"/><polygon class="cls-1" points="43.22 0.15 43.22 6 36.95 0.01 36.95 9.29 38.44 9.29 38.44 3.35 44.7 9.44 44.7 0.15 43.22 0.15"/><polygon class="cls-1" points="86.91 9.3 88.39 9.3 88.39 3.45 94.61 9.44 94.61 0.31 93.14 0.31 93.14 6.06 86.91 0.17 86.91 9.3"/></g></g></svg>