<svg xmlns="http://www.w3.org/2000/svg" viewBox="0 0 63.48 9.44"><defs><style>.cls-1{fill:#ababab;}</style></defs><g id="Layer_2" data-name="Layer 2"><g id="Layer_1-2" data-name="Layer 1"><path class="cls-1" d="M17.81,2.49c0,1.5.93,2.16,2.16,2.61l1.33.47c.83.32,1.3.6,1.3,1.31s-.74,1.19-1.79,1.19A4.6,4.6,0,0,1,17.89,7V8.64a5.23,5.23,0,0,0,2.92.8c1.87,0,3.3-.92,3.3-2.59A2.64,2.64,0,0,0,22,4.2l-1.48-.54c-.77-.27-1.2-.53-1.2-1.21S20,1.36,21,1.36a4.29,4.29,0,0,1,2.68,1V.74A5.07,5.07,0,0,0,20.91,0c-1.69,0-3.1.88-3.1,2.49"/><rect class="cls-1" x="28.16" y="0.16" width="1.56" height="9.15"/><rect class="cls-1" y="0.16" width="1.56" height="9.15"/><path class="cls-1" d="M35.85,1.53h1.91c1.93,0,3,1.23,3,3.2s-1,3.19-3,3.19H35.85ZM34.29.16V9.3h3.52a4.23,4.23,0,0,0,4.48-4.57A4.23,4.23,0,0,0,37.81.16Z"/><polygon class="cls-1" points="45.59 0.16 45.59 9.3 51.17 9.3 51.17 7.92 47.12 7.92 47.12 5.08 50.75 5.08 50.75 3.73 47.12 3.73 47.12 1.53 51.17 1.53 51.17 0.16 45.59 0.16"/><path class="cls-1" d="M57.39,1.5h1.75c1,0,1.62.55,1.62,1.4s-.58,1.4-1.62,1.4H57.39ZM55.83.16V9.3h1.56V5.59H58.5L61.7,9.3h1.78L60.16,5.53A2.32,2.32,0,0,0,62.3,2.9c0-1.79-1.23-2.74-3.13-2.74Z"/><polygon class="cls-1" points="6.04 9.3 7.54 9.3 7.54 3.35 13.87 9.44 13.87 0.15 12.37 0.15 12.37 6 6.04 0.01 6.04 9.3"/></g></g></svg>